<?xml version="1.0" encoding="utf-8"?>
<!-- Generator: Adobe Illustrator 19.2.1, SVG Export Plug-In . SVG Version: 6.00 Build 0)  -->
<svg version="1.1" id="layer" xmlns="http://www.w3.org/2000/svg" xmlns:xlink="http://www.w3.org/1999/xlink" x="0px" y="0px"
	 viewBox="0 0 652 652" style="enable-background:new 0 0 652 652;" xml:space="preserve">
<style type="text/css">
	.st0{fill:#41273B;}
	.st1{fill:url(#SVGID_1_);}
	.st2{fill:url(#SVGID_2_);}
	.st3{fill:#FFFFFF;}
</style>
<g>
	<path class="st0" d="M427.8,284.3l9,8.9c-5.8,4.1-10.1,5.6-15.7,5.6c-2.4,0-4.7-0.4-6.3-1.1c3.7,4.7,5.6,9.9,5.6,15.9
		c0,10.4-5.2,20.2-13.8,25.6c-4.7,3-10.6,4.1-17.3,4.1c-12.5,4.5-16.8,7.6-16.8,10.8c0,2.8,2.8,4.5,7.5,4.5h14.9
		c10.8,0,16.8,1.3,22.4,5.2c7.3,5,10.3,11.6,10.3,19.6c0,20.2-14.4,29.3-36.9,29.3c-29.1,0-40.3-10.4-40.3-23.7
		c0-3.4,0.6-6.2,1.9-9.9l15.3-1.3c-1.3,2-2.6,5.4-2.6,8.4c0,4.9,2,8.8,5.4,10.8c4.5,2.6,11.4,4.3,18.9,4.3
		c14.4,0,22.6-4.7,22.6-16.2c0-5-1.7-8.9-5-11.2c-3.5-2.4-9.1-3.4-18.3-3.4c-3.7,0-11.4,0.2-14.4,0.2c-11,0-17.5-5-17.5-13.4
		c0-7.5,4.1-11.9,16.8-15.9c-12.5-3.9-20.9-14.6-20.9-26.9c0-18.7,14-31.3,34.3-31.3c14.2,0,17,5.2,28.4,5.2
		C419.7,288.4,423.3,287.3,427.8,284.3z M386.1,295.5c-11.6,0-17.5,6-17.5,18.8c0,11.9,6.2,18.1,17.9,18.1
		c11.2,0,16.8-6.2,16.8-18.7C403.3,301.1,398.5,295.5,386.1,295.5z"/>
	<path class="st0" d="M502.2,359.1l5.6,9.3c-8.2,7.5-19.4,11.6-31.3,11.6c-25.8,0-41.2-18.7-41.2-49.4c0-15.7,3.4-25.8,11.2-35.1
		c7.5-8.8,16.6-12.9,27.8-12.9c10.1,0,18.8,3.5,25.2,10.1c8,8.2,10.3,17,10.6,39.2v2h-58v2.2c0,8.8,1.1,15.5,4.3,20.3
		c5.2,8,13.8,11.4,23.1,11.4C488.4,367.9,495.6,365.1,502.2,359.1z M452,322.9h42.5c-0.2-10.1-1.5-16.2-4.3-20.7
		c-3.2-5-9.7-8.2-16.8-8.2C460.2,294,452.7,303.7,452,322.9z"/>
	<path class="st0" d="M515.5,286l14.5-3.2c0,0,3.4,6.9,3.4,14.6c9.7-9.7,19.4-14.4,29.3-14.4c10.1,0,19,5.4,22.8,13.6
		c1.5,3.4,2.2,7.1,2.2,10.8V378h-14.7v-62.9c0-9.9-0.7-12.3-3.4-15.5c-2-2.4-6-3.9-10.3-3.9c-7.5,0-19,6-25.8,13.1V378h-14.2v-71.6
		C519.3,293.1,515.5,286,515.5,286z"/>
	<path class="st0" d="M457,427v-12.7c0-1.2-0.2-1.9-0.6-2.4c-0.4-0.4-1-0.6-1.8-0.6c-0.7,0-1.5,0.2-2.3,0.6c-0.8,0.4-1.6,1-2.2,1.7
		V427H446v-22.3c0-0.8,0-1.6-0.1-2.3c-0.1-0.7-0.1-1.3-0.3-1.8l4.1-0.9c0.1,0.5,0.2,1.2,0.3,1.9c0.1,0.7,0.1,1.6,0.1,2.5v4
		c0,0.5,0,1,0,1.4c0,0.4,0,0.6,0,0.7c1.8-1.6,3.7-2.4,5.7-2.4c1.1,0,2.1,0.2,2.9,0.7c0.8,0.5,1.4,1,1.7,1.6c0.2,0.5,0.4,1,0.5,1.5
		c0.1,0.5,0.1,1.3,0.1,2.2V427L457,427L457,427z"/>
	<path class="st0" d="M470.9,418.7v0.3c0,0.6,0.1,1.3,0.2,1.9c0.1,0.6,0.4,1.2,0.7,1.7c0.4,0.5,0.8,0.9,1.4,1.2
		c0.6,0.3,1.4,0.5,2.3,0.5c1.7,0,3.2-0.6,4.7-1.8l1.6,2.5c-1.9,1.7-4.2,2.5-6.8,2.5c-1.3,0-2.5-0.2-3.6-0.7c-1.1-0.5-2-1.1-2.7-2
		c-0.7-0.9-1.3-1.9-1.7-3.1c-0.4-1.2-0.6-2.6-0.6-4.1c0-1.7,0.2-3.1,0.6-4.2c0.4-1.2,1-2.2,1.8-3.1c0.8-0.9,1.6-1.5,2.6-1.9
		c0.9-0.4,2-0.6,3.2-0.6c0.9,0,1.8,0.1,2.7,0.4c0.9,0.3,1.7,0.8,2.5,1.5c0.8,0.7,1.4,1.7,1.8,3c0.4,1.3,0.6,3,0.6,5.2v0.9
		L470.9,418.7L470.9,418.7z M477.9,415.7c0-1.5-0.3-2.7-0.9-3.6s-1.4-1.3-2.5-1.3c-1.2,0-2,0.4-2.7,1.3c-0.6,0.8-0.9,2-0.9,3.6
		H477.9z"/>
	<path class="st0" d="M501.4,427.8c-0.6-0.2-1.1-0.5-1.5-1c-0.5-0.4-0.8-0.9-1-1.5c-0.8,0.9-1.6,1.5-2.4,1.8s-1.7,0.5-2.8,0.5
		c-2.1,0-3.7-0.5-4.7-1.6c-1-1.1-1.5-2.4-1.5-4c0-2.2,0.8-3.8,2.4-4.9c1.6-1.1,3.9-1.6,6.9-1.6h1.3v-1c0-1.1-0.1-1.9-0.5-2.5
		c-0.3-0.6-1-0.8-2.1-0.8c-0.6,0-1.2,0.1-1.8,0.3c-0.6,0.2-1.2,0.4-1.7,0.6c-0.5,0.2-1,0.5-1.3,0.7l-0.8,0.5l-1.8-2.9
		c1.4-0.9,2.7-1.5,4-1.9c1.3-0.4,2.6-0.6,4-0.6c3,0,4.9,1,5.7,3.1c0.1,0.2,0.1,0.4,0.2,0.7c0,0.2,0.1,0.5,0.1,0.9c0,0.3,0,0.8,0,1.3
		v1.8l-0.1,5.4c0,0.6,0,1.2,0,1.6c0,0.4,0.1,0.8,0.2,1.1c0.1,0.3,0.3,0.6,0.5,0.9c0.2,0.2,0.5,0.5,0.9,0.7L501.4,427.8z
		 M497.9,418.2c0,0-0.1,0-0.3,0c-0.2,0-0.3,0-0.4,0c-1,0-1.9,0.1-2.5,0.2c-0.7,0.1-1.2,0.4-1.6,0.7c-0.4,0.3-0.7,0.7-0.9,1.1
		c-0.2,0.4-0.3,1-0.3,1.6c0,0.9,0.2,1.6,0.7,2.1s1.1,0.8,1.9,0.8c0.6,0,1.3-0.2,1.8-0.5s1.1-0.8,1.5-1.4L497.9,418.2z"/>
	<path class="st0" d="M515.7,426.9c-0.7,0.3-1.6,0.4-2.4,0.4c-1,0-1.8-0.2-2.4-0.6c-0.6-0.4-1-0.9-1.2-1.5s-0.4-1.1-0.4-1.7
		s0-1.1,0-1.5v-16c0-0.6,0-1.2,0-1.7c0-0.5,0-1-0.1-1.4c0-0.4-0.1-0.8-0.1-1.2c0-0.4-0.1-0.8-0.2-1.2l4.2-0.9
		c0.1,0.6,0.2,1.3,0.3,2.1c0,0.8,0,1.8,0,3.1v15.9c0,0.6,0,1.2,0,1.5c0,0.4,0,0.7,0.1,0.9c0,0.2,0.1,0.4,0.1,0.6
		c0,0.1,0.1,0.2,0.2,0.3c0.1,0.2,0.3,0.3,0.6,0.4c0.3,0.1,0.5,0,0.8-0.1L515.7,426.9z"/>
	<path class="st0" d="M531,426.7c-1.2,0.5-2.4,0.8-3.7,0.8c-0.9,0-1.7-0.1-2.3-0.4c-0.6-0.2-1.1-0.6-1.5-1s-0.7-1-0.8-1.5
		c-0.2-0.6-0.3-1.2-0.3-1.9v-11.6h-2.1v-2.8h2.1c0-0.8,0-1.6,0-2.4c0-0.8,0.1-1.6,0.2-2.3l4.2-0.9c-0.1,0.8-0.2,1.7-0.2,2.7
		s-0.1,2-0.1,3h4.5l-1.1,2.8h-3.4v10.5c0,1.2,0.2,1.9,0.5,2.4c0.3,0.4,0.9,0.6,1.8,0.6c0.5,0,1.1-0.1,1.7-0.4L531,426.7z"/>
	<path class="st0" d="M548,427v-12.7c0-1.2-0.2-1.9-0.6-2.4c-0.4-0.4-1-0.6-1.8-0.6c-0.7,0-1.5,0.2-2.3,0.6c-0.8,0.4-1.6,1-2.2,1.7
		V427h-4.1v-22.3c0-0.8,0-1.6-0.1-2.3s-0.1-1.3-0.3-1.8l4.1-0.9c0.1,0.5,0.2,1.2,0.3,1.9c0.1,0.7,0.1,1.6,0.1,2.5v4c0,0.5,0,1,0,1.4
		s0,0.6,0,0.7c1.8-1.6,3.7-2.4,5.7-2.4c1.1,0,2.1,0.2,2.9,0.7c0.8,0.5,1.4,1,1.7,1.6c0.2,0.5,0.4,1,0.5,1.5c0.1,0.5,0.1,1.3,0.1,2.2
		V427L548,427L548,427z"/>
	<path class="st0" d="M571.5,425c-0.9,0.9-1.8,1.5-2.7,1.9c-0.9,0.4-2,0.6-3.3,0.6c-2.6,0-4.5-0.8-5.9-2.5s-2.1-4.1-2.1-7.1
		c0-1.7,0.2-3.2,0.7-4.4c0.5-1.3,1.1-2.3,1.8-3.2c0.8-0.8,1.7-1.5,2.7-1.9c1-0.4,2-0.6,3.1-0.6c1,0,1.9,0.1,2.7,0.4
		c0.8,0.3,1.6,0.8,2.4,1.6l-2,2.7c-1.1-1-2.1-1.5-3.2-1.5c-1.4,0-2.3,0.6-3,1.9c-0.3,0.6-0.5,1.3-0.6,2.1c-0.1,0.9-0.2,1.9-0.2,3.1
		c0,2.5,0.4,4.2,1.3,5.1c0.6,0.7,1.5,1.1,2.5,1.1c1.3,0,2.5-0.6,3.8-1.8L571.5,425z"/>
	<path class="st0" d="M590,427.8c-0.6-0.2-1.1-0.5-1.5-1c-0.5-0.4-0.8-0.9-1-1.5c-0.8,0.9-1.6,1.5-2.4,1.8c-0.8,0.3-1.7,0.5-2.8,0.5
		c-2.1,0-3.7-0.5-4.7-1.6c-1-1.1-1.5-2.4-1.5-4c0-2.2,0.8-3.8,2.4-4.9c1.6-1.1,3.9-1.6,6.9-1.6h1.3v-1c0-1.1-0.1-1.9-0.5-2.5
		c-0.3-0.6-1-0.8-2.1-0.8c-0.6,0-1.2,0.1-1.8,0.3c-0.6,0.2-1.2,0.4-1.7,0.6c-0.5,0.2-1,0.5-1.3,0.7l-0.8,0.5l-1.8-2.9
		c1.4-0.9,2.7-1.5,4-1.9c1.3-0.4,2.6-0.6,4-0.6c3,0,4.9,1,5.7,3.1c0.1,0.2,0.1,0.4,0.2,0.7c0,0.2,0.1,0.5,0.1,0.9c0,0.3,0,0.8,0,1.3
		v1.8l-0.1,5.4c0,0.6,0,1.2,0,1.6c0,0.4,0.1,0.8,0.2,1.1c0.1,0.3,0.3,0.6,0.5,0.9c0.2,0.2,0.5,0.5,0.9,0.7L590,427.8z M586.6,418.2
		c0,0-0.1,0-0.3,0c-0.2,0-0.3,0-0.4,0c-1,0-1.9,0.1-2.5,0.2c-0.7,0.1-1.2,0.4-1.6,0.7s-0.7,0.7-0.9,1.1c-0.2,0.4-0.3,1-0.3,1.6
		c0,0.9,0.2,1.6,0.7,2.1s1.1,0.8,1.9,0.8c0.6,0,1.3-0.2,1.8-0.5s1.1-0.8,1.5-1.4L586.6,418.2z"/>
	<path class="st0" d="M606.7,411.8c-0.2-0.1-0.4-0.1-0.6-0.2c-0.2,0-0.4-0.1-0.6-0.1c-0.9,0-1.6,0.3-2.3,0.8c-0.6,0.5-1.1,1.2-1.3,2
		V427h-4.1v-13.2c0-1.2-0.1-2.2-0.2-3c-0.1-0.8-0.3-1.6-0.5-2.2l3.8-0.8c0.5,0.9,0.7,1.9,0.7,3c0.7-1,1.5-1.8,2.3-2.3
		c0.8-0.5,1.6-0.7,2.5-0.7c0.5,0,1,0.1,1.5,0.3L606.7,411.8z"/>
	<path class="st0" d="M615.5,418.7v0.3c0,0.6,0.1,1.3,0.2,1.9c0.1,0.6,0.4,1.2,0.7,1.7c0.4,0.5,0.8,0.9,1.4,1.2
		c0.6,0.3,1.4,0.5,2.3,0.5c1.7,0,3.2-0.6,4.7-1.8l1.6,2.5c-1.9,1.7-4.2,2.5-6.8,2.5c-1.3,0-2.5-0.2-3.6-0.7c-1.1-0.5-2-1.1-2.7-2
		c-0.7-0.9-1.3-1.9-1.7-3.1c-0.4-1.2-0.6-2.6-0.6-4.1c0-1.7,0.2-3.1,0.6-4.2c0.4-1.2,1-2.2,1.8-3.1c0.8-0.9,1.6-1.5,2.6-1.9
		c0.9-0.4,2-0.6,3.2-0.6c0.9,0,1.8,0.1,2.7,0.4c0.9,0.3,1.7,0.8,2.5,1.5c0.8,0.7,1.4,1.7,1.8,3c0.4,1.3,0.6,3,0.6,5.2v0.9
		L615.5,418.7L615.5,418.7z M622.5,415.7c0-1.5-0.3-2.7-0.9-3.6c-0.6-0.9-1.4-1.3-2.5-1.3c-1.2,0-2,0.4-2.7,1.3
		c-0.6,0.8-0.9,2-0.9,3.6H622.5z"/>
	<g>
		
			<linearGradient id="SVGID_1_" gradientUnits="userSpaceOnUse" x1="26.74" y1="327.28" x2="340.8206" y2="327.28" gradientTransform="matrix(1 0 0 -1 0 652)">
			<stop  offset="0" style="stop-color:#DC6B2F"/>
			<stop  offset="0.3872" style="stop-color:#C55434"/>
			<stop  offset="1" style="stop-color:#A4343A"/>
		</linearGradient>
		<path class="st1" d="M111,203l-84.3,85.1v158.3h229.8l61.4-62.3c-0.2,0-0.4,0-0.7,0c-4.9,0-8.6-0.9-12.1-2.6
			c-6.5-3.2-9-9.1-9-18.5v-63.8h-17.2l7-11h10.1c0-9,1.5-23.5,1.5-23.5l15.3-3.4c0,0-1.9,14.6-1.9,26.9h23.3v11h-23.9v59.9
			c0,10.3,2.8,13.8,11.9,13.8c3.3,0,5.6-0.4,7.7-1.2l10.6-10.7V203H111z M116.1,381.1h-14.7v-62.9c0-9.9-0.7-12.3-3.4-15.5
			c-2-2.4-6-3.9-10.3-3.9c-7.5,0-19,6-25.8,13.1v69.2H47.8v-71.6c0-13.2-3.9-20.3-3.9-20.3l14.5-3.2c0,0,3.4,6.9,3.4,14.6
			c9.7-9.7,19.4-14.4,29.3-14.4c10.1,0,19,5.4,22.8,13.6c1.5,3.4,2.2,7.1,2.2,10.8L116.1,381.1L116.1,381.1z M199.5,337.1h-58v2.2
			c0,8.8,1.1,15.5,4.3,20.3c5.2,8,13.8,11.4,23.1,11.4c9,0,16.2-2.8,22.8-8.8l5.6,9.3c-8.2,7.5-19.4,11.6-31.3,11.6
			c-25.8,0-41.2-18.7-41.2-49.4c0-15.7,3.4-25.8,11.2-35.1c7.5-8.8,16.6-12.9,27.8-12.9c10.1,0,18.8,3.5,25.2,10.1
			c8,8.2,10.3,17,10.6,39.2L199.5,337.1L199.5,337.1z M285.3,381.1h-17.7l-25.2-39.6l-25.2,39.6H200l34.7-51.5l-28.7-41.4h17.9
			l18.5,31l17.9-31h17l-27.6,41.4L285.3,381.1z"/>
		
			<linearGradient id="SVGID_2_" gradientUnits="userSpaceOnUse" x1="33.1046" y1="340.3536" x2="340.8308" y2="340.3536" gradientTransform="matrix(1 0 0 -1 0 652)">
			<stop  offset="0" style="stop-color:#DC6B2F"/>
			<stop  offset="0.3872" style="stop-color:#C55434"/>
			<stop  offset="1" style="stop-color:#A4343A"/>
		</linearGradient>
		<path class="st2" d="M162.9,297.2c-13.2,0-20.7,9.7-21.5,28.9H184c-0.2-10.1-1.5-16.2-4.3-20.7C176.5,300.4,170,297.2,162.9,297.2
			z"/>
	</g>
	<path class="st3" d="M91.1,286.2c-9.9,0-19.6,4.7-29.3,14.4c0-7.6-3.4-14.6-3.4-14.6l-14.5,3.2c0,0,3.9,7.1,3.9,20.3v71.6H62v-69.2
		c6.7-7.1,18.3-13.1,25.8-13.1c4.3,0,8.2,1.5,10.3,3.9c2.6,3.2,3.4,5.6,3.4,15.5v62.9h14.7v-70.5c0-3.7-0.7-7.5-2.2-10.8
		C110.1,291.6,101.1,286.2,91.1,286.2z"/>
	<path class="st3" d="M163.6,285.8c-11.2,0-20.3,4.1-27.8,12.9c-7.8,9.3-11.2,19.4-11.2,35.1c0,30.8,15.5,49.4,41.2,49.4
		c11.9,0,23.1-4.1,31.3-11.6l-5.6-9.3c-6.5,6-13.8,8.8-22.8,8.8c-9.3,0-17.9-3.4-23.1-11.4c-3.2-4.9-4.3-11.6-4.3-20.3v-2.2h58v-2
		c-0.4-22.2-2.6-31-10.6-39.2C182.5,289.3,173.7,285.8,163.6,285.8z M141.4,326.1c0.7-19.2,8.2-28.9,21.5-28.9
		c7.1,0,13.6,3.2,16.8,8.2c2.8,4.5,4.1,10.6,4.3,20.7H141.4z"/>
	<polygon class="st3" points="277.2,288.2 260.3,288.2 242.4,319.2 223.9,288.2 206,288.2 234.7,329.7 200,381.1 217.2,381.1 
		242.4,341.6 267.5,381.1 285.3,381.1 249.6,329.7 	"/>
	<path class="st3" d="M310.6,359.1v-59.9h23.9v-11h-23.3c0-12.3,1.9-26.9,1.9-26.9l-15.3,3.4c0,0-1.5,14.6-1.5,23.5h-10.1l-7,11
		h17.2V363c0,9.3,2.4,15.3,9,18.5c3.5,1.7,7.3,2.6,12.1,2.6c0.2,0,0.4,0,0.7,0l12.2-12.4c-2.1,0.8-4.3,1.2-7.7,1.2
		C313.4,372.9,310.6,369.4,310.6,359.1z"/>
	<g>
		<path class="st0" d="M614,365.5c-0.5-1.1-1.1-2-1.9-2.8c-0.8-0.8-1.8-1.4-2.9-1.9c-1.1-0.5-2.2-0.7-3.5-0.7
			c-1.2,0-2.4,0.2-3.5,0.7c-1.1,0.5-2,1.1-2.9,1.9s-1.5,1.7-1.9,2.8c-0.5,1.1-0.7,2.3-0.7,3.6c0,1.3,0.2,2.5,0.7,3.6
			c0.5,1.1,1.1,2,1.9,2.9c0.8,0.8,1.8,1.4,2.9,1.9c1.1,0.5,2.3,0.7,3.5,0.7c1.2,0,2.4-0.2,3.5-0.7c1.1-0.5,2-1.1,2.9-1.9
			c0.8-0.8,1.5-1.7,1.9-2.9s0.7-2.3,0.7-3.6C614.7,367.8,614.5,366.6,614,365.5z M612.9,372.3c-0.4,1-1,1.8-1.7,2.6
			s-1.5,1.3-2.5,1.7c-1,0.4-2,0.6-3,0.6c-1.1,0-2.1-0.2-3.1-0.6c-1-0.4-1.8-1-2.5-1.7c-0.7-0.7-1.3-1.6-1.7-2.6
			c-0.4-1-0.6-2-0.6-3.2c0-1.1,0.2-2.2,0.6-3.2c0.4-1,1-1.8,1.7-2.6s1.5-1.3,2.5-1.7c1-0.4,2-0.6,3.1-0.6c1.1,0,2.1,0.2,3,0.6
			c1,0.4,1.8,1,2.5,1.7c0.7,0.7,1.3,1.6,1.7,2.6c0.4,1,0.6,2,0.6,3.2C613.5,370.2,613.3,371.3,612.9,372.3z"/>
		<path class="st0" d="M607.8,371.6c-0.1-0.2-0.3-0.5-0.4-0.7c-0.1-0.2-0.3-0.4-0.4-0.6c-0.1-0.1-0.2-0.3-0.4-0.5
			c-0.1-0.1-0.3-0.3-0.5-0.4c0.7,0,1.3-0.2,1.8-0.7c0.4-0.4,0.6-1,0.6-1.7c0-0.4-0.1-0.8-0.2-1.1c-0.2-0.3-0.3-0.5-0.5-0.7
			c-0.2-0.2-0.5-0.3-0.8-0.5c-0.3-0.1-0.8-0.2-1.4-0.2h-2v8.8h0.9v-4h0.3c0.2,0,0.4,0,0.5,0.1s0.3,0.2,0.4,0.3
			c0.3,0.3,0.6,0.7,0.8,1c0.2,0.3,0.5,0.8,0.8,1.3c0.2,0.3,0.3,0.5,0.4,0.7c0.1,0.2,0.2,0.4,0.3,0.5h1.1L607.8,371.6z M605.4,368.8
			h-1.1v-3.5h1c0.3,0,0.6,0,0.9,0.1c0.2,0,0.4,0.1,0.6,0.2c0.2,0.1,0.4,0.3,0.6,0.5s0.2,0.6,0.2,0.9c0,0.6-0.2,1-0.5,1.3
			C606.7,368.7,606.2,368.8,605.4,368.8z"/>
	</g>
</g>
</svg>
